<svg width="32" height="32" viewBox="0 0 32 32" fill="none" xmlns="http://www.w3.org/2000/svg">
  <path d="M8 12C8 10.3431 9.34315 9 11 9H21C22.6569 9 24 10.3431 24 12V24C24 26.2091 22.2091 28 20 28H12C9.79086 28 8 26.2091 8 24V12Z" stroke="#FF4D4D" stroke-width="2.5"/>
  <path d="M13 9V7C13 5.34315 14.3431 4 16 4C17.6569 4 19 5.34315 19 7V9" stroke="#FF4D4D" stroke-width="2.5"/>
  <path d="M8 18H5C3.89543 18 3 18.8954 3 20V24C3 25.1046 3.89543 26 5 26H8" stroke="#FF4D4D" stroke-width="2.5"/>
  <path d="M24 18H27C28.1046 18 29 18.8954 29 20V24C29 25.1046 28.1046 26 27 26H24" stroke="#FF4D4D" stroke-width="2.5"/>
  <path d="M12 21H20V24C20 25.1046 19.1046 26 18 26H14C12.8954 26 12 25.1046 12 24V21Z" stroke="#FF4D4D" stroke-width="2"/>
  <path d="M8 12L16 18L24 12" stroke="#FF4D4D" stroke-width="2"/>
</svg>
